<svg xmlns="http://www.w3.org/2000/svg" version="1.1" width="600px" height="600px" viewBox="0 0 200 200" style="overflow:hidden!important;"><g id="svga-group-wrapper"><g id="svga-group-backs-single"></g><g id="svga-group-humanwrap-move" transform="matrix(1,0,0,1,0,0)"><g id="svga-group-humanwrap"><g id="svga-group-hair-back-move" transform="matrix(0.9986295346632303,-0.05233595798588131,0.05233595798588131,0.9986295346632303,-6.928307794417009,5.418608619052037)"><g id="svga-group-hair-back"><path id="SvgjsPath9372" d="M57.4 66.1s.6 88.5 3.6 102.7 3.9 17 3.9 17l81.5.7s3.9-26.6 4.8-44.6-13-82.9-13-82.9l-80.8 7.1z" fill="#4c342a" stroke-width="none" opacity="1" stroke="none"></path></g></g><g id="svga-group-humanbody-back"><path id="SvgjsPath8700" d="M77.8 105.9s4.8 37.7 10 55.8c0 0-6.4 8.8-14.5 11.9-28.7 11.2-35 11.2-39.6 15.2-2.4 2.1.2 11.1 1.8 17.2 1.3 5 1.7 13.2 1.7 13.2h132.2s1.6-33-.6-39.8-7.1-2.9-21.9-4.5c-14.8-1.6-28.7-10.3-31-13.2l.3-60-38.4 4.2z" fill="#f3d4cf" stroke-width="none" opacity="1" stroke="none"></path></g><g id="svga-group-chinshadow-single"><path id="SvgjsPath9433" d="M86.3 155.9c6.3 1 20.4.7 22.8-.7 1.3-.8 3.8-3.1 6.8-6.3l.3-47.2-38.4 4.2s3.9 30.7 8.5 50z" fill="#d4958a" stroke-width="none" opacity="1"></path></g><g id="svga-group-humanbody-front"><path id="SvgjsPath8701" d="M72.1 183.1s14.6-.2 20.4 2.6c5.8 2.9 12.7 2.4 16.1-1s21.6-7 21.6-7-19.7 1.9-25 4.6c-5.3 2.7-22.3-2.8-33.1.8z" fill="#d4958a" stroke-width="none" opacity="1" stroke="none"></path><path id="SvgjsPath8702" d="M74.2 173.2c6.7-1.3 14.7-6.4 14.7-6.4l6.2 5.5c-4.3-7.9-12.7-41.1-12.7-41.1l-.7.7c1.7 10.5 3.9 21.9 6.1 29.7 0 0-6 8.2-13.6 11.6z" fill="#d4958a" stroke-width="none" opacity="1" stroke="none"></path><path id="SvgjsPath8703" d="M170.7 188.5c-.1-2.1-.2-4.1-.4-6.2-.1-1-.3-2.1-.6-3.2-.2-.5-.4-1-.6-1.6-.2-.5-.6-1-1-1.5s-.9-.9-1.5-1.1c-.6-.3-1.1-.4-1.7-.6-1.1-.2-2.2-.2-3.2-.2-2.1 0-4.1.1-6.1.1s-4-.1-6-.2-4-.4-6-.7c-1-.2-2-.4-2.9-.6l-1.5-.4c-.5-.1-1-.3-1.4-.4-3.8-1.1-7.6-2.6-11.2-4.4l-1.3-.7-1.3-.7c-.4-.2-.9-.5-1.3-.8s-.9-.5-1.3-.8-.8-.5-1.3-.8l-1.2-.9-.6-.5-.3-.2-.3-.2c-.2-.2-.4-.3-.5-.5l-.2-.3v-44.6l-.1-15v-.6l-.6.1c-6.4.8-12.9 1.5-19.3 2.3l-19.1 2.3v.5l.1.4.1.9.2 1.8c.1 1.2.3 2.3.4 3.5l.9 7c.6 4.7 1.3 9.4 2.1 14 .8 4.7 1.5 9.3 2.5 14 .9 4.5 1.8 9 3 13.5-1.1 1.4-2.3 2.7-3.6 4-1.3 1.3-2.8 2.6-4.3 3.8-1.5 1.1-3.1 2.2-4.8 3l-1.3.6c-.4.2-.9.3-1.3.5l-2.7 1c-7.2 2.7-14.5 5.3-21.8 7.7l-5.5 1.8c-1.8.6-3.7 1.3-5.5 2.2-.4.2-.9.5-1.3.7-.4.3-.9.5-1.3.9l-.6.5c-.2.2-.5.5-.6.8-.3.5-.4 1.1-.5 1.6-.2 1.1-.1 2.1 0 3.1s.3 2 .4 2.9c.4 1.9.8 3.8 1.3 5.7l.8 2.8c.3.9.5 1.8.7 2.8.4 1.9.7 3.8.9 5.7s.4 3.8.5 5.7v.8h133.4v-.8c.2-4.1.4-8.2.5-12.3s.2-8.2.2-12.3c0-1.8-.1-3.8-.1-5.9zm-67.4 30.3H70.2l-16.5-.1-16-.1c-.1-1.8-.2-3.5-.4-5.3-.2-1.9-.4-3.9-.8-5.8-.2-1-.4-1.9-.7-2.9l-.7-2.8c-.5-1.9-.9-3.7-1.2-5.6-.2-.9-.3-1.9-.4-2.8-.1-.9-.1-1.9 0-2.7.1-.4.2-.8.4-1.1.1-.2.2-.3.3-.4l.5-.4c.3-.3.7-.5 1.1-.8.4-.2.8-.5 1.2-.7 1.7-.8 3.5-1.4 5.3-2l5.5-1.8c7.3-2.4 14.6-5 21.8-7.8l2.7-1c.5-.2.9-.3 1.4-.5l1.4-.6c1.8-.9 3.4-2 5-3.2s3-2.5 4.4-3.9 2.7-2.9 3.8-4.5l.2-.3-.1-.3c-1.3-4.5-2.3-9.1-3.3-13.7s-1.9-9.3-2.7-13.9c-.8-4.6-1.6-9.3-2.4-14l-2.2-13.9 19.3-1.8c6.2-.6 12.3-1.2 18.5-1.8l-.2 14.4-.2 15-.3 30v.4l.2.2.6.7.6.6.3.3.3.2.6.5c.4.3.9.6 1.3.9.4.3.9.6 1.3.9.4.3.9.5 1.3.8s.9.5 1.3.8l1.4.8 1.4.7c.5.2.9.5 1.4.7l1.4.7c1 .4 1.9.8 2.9 1.2s1.9.8 2.9 1.1l1.5.5c.5.2 1 .3 1.5.4.5.1 1 .3 1.5.4l1.5.4c1 .3 2 .4 3 .6 2 .4 4.1.6 6.2.8 2.1.2 4.1.2 6.2.2 2.1 0 4.1-.1 6.1-.1s4 .1 5 1.3c.5.6.9 1.4 1.2 2.3.3.9.4 1.9.6 2.8.3 2 .4 4 .5 6s.1 4.1.2 6.1c.1 7.9-.1 15.8-.4 23.7-10.8.1-21.5.1-32.3.2h-33.1z" fill="#c5796d" stroke-width="none" opacity="1" stroke="none"></path><path id="SvgjsPath8704" d="M150.7 219.2 147 198l-.4 21.2z" fill="#d4958a" stroke-width="none" opacity="1" stroke="none"></path><path id="SvgjsPath8705" d="M47.3 203.5s2.2 11.5 2.9 15.7h3.5l-6.4-15.7z" fill="#d4958a" stroke-width="none" opacity="1" stroke="none"></path></g><g id="svga-group-clothes-single"><path id="SvgjsPath8839" d="M72.29 172.58s2.02 7.56 17.38 13.74 41.96-.02 44.23-15.23c0 0 6.36 1.86 14.04 2.24 7.68.37 15.92-.37 18.16.56 2.25.94 5.62 3.18 4.87 13.3-.75 10.11.19 23.22.19 23.22l-23.03 1.5.52 7.9H52.63l-1.87-5.47-15.73-1.12s-.19-7.12-1.31-9.92c-1.12-2.81-3.18-10.3-2.06-14.04s11.24-6.74 17.98-8.99c6.73-2.26 22.65-7.69 22.65-7.69z" fill="#f70776" stroke-width="none" opacity="1" stroke="none"></path><path id="SvgjsPath8840" d="M171.11 192.7c.04-1.47.1-2.94.22-4.41.11-1.45.23-2.97.22-4.46-.03-1.5-.14-3.02-.5-4.51-.37-1.48-.95-2.99-2.06-4.18-.54-.6-1.2-1.1-1.9-1.47-.66-.39-1.56-.65-2.31-.73-1.54-.2-3.02-.22-4.51-.24-2.97-.03-5.91.01-8.85-.07-5.85-.05-11.69-.84-17.28-2.38l-.98-.27-.15.99c-.45 2.88-1.86 5.58-3.91 7.73-2.04 2.17-4.6 3.87-7.33 5.2-5.49 2.64-11.64 3.88-17.75 4.09-3.06.09-6.14-.12-9.15-.71-1.5-.3-2.98-.7-4.42-1.21-.72-.25-1.43-.58-2.14-.86-.72-.29-1.43-.59-2.12-.94-2.8-1.29-5.51-2.82-7.94-4.71-1.22-.94-2.37-1.98-3.38-3.14a15.6 15.6 0 0 1-1.42-1.82 12.408 12.408 0 0 1-.86-1.5c-.04-.09-.08-.17-.12-.26-.05-.1-.04-.15-.15-.33l-16.4 5.19-8.28 2.65c-2.74.86-5.49 1.72-8.19 2.76-1.35.52-2.7 1.09-4.01 1.77-1.3.69-2.62 1.44-3.7 2.68-.27.31-.5.68-.69 1.08-.2.45-.24.81-.35 1.2-.12.77-.19 1.54-.18 2.29.01 1.5.19 2.97.44 4.42.26 1.44.59 2.87.99 4.28.2.7.42 1.4.66 2.1.28.75.47 1.27.62 1.95.56 2.67.72 5.57.81 8.37l.03.87.87.07c5.01.41 10.03.75 15.05 1.13l1.65 4.83.24.7h.74c8 0 16 .06 24.01.01l24.01-.11 24.01-.16 24.01-.27.54-.01-.04-.53-.57-7.48c3.7-.29 7.39-.53 11.09-.79l11.51-.79.3-.02-.02-.3c-.36-5.9-.51-11.81-.36-17.7zm-11.49 18.1c-3.84.23-7.68.48-11.52.68l-.41.02.02.42.41 7.37-23.48-.26-24.01-.16-24.01-.11c-7.76-.05-15.51 0-23.27.01L51.72 214l-.22-.64-.67-.05c-4.96-.34-9.92-.71-14.88-1.02-.14-2.62-.35-5.2-.94-7.84-.16-.72-.47-1.55-.71-2.14-.24-.65-.46-1.32-.66-1.99-.41-1.35-.75-2.72-1.01-4.09-.26-1.38-.45-2.77-.48-4.13-.03-.69.03-1.35.12-2 .07-.3.13-.65.23-.87.11-.24.25-.49.46-.73.79-.95 1.99-1.72 3.19-2.39 1.22-.67 2.51-1.26 3.82-1.8 2.62-1.09 5.33-2.02 8.05-2.95 2.73-.94 5.35-1.88 8.03-2.84l16.22-5.86c-.06.01.03.14.04.23.03.1.07.18.11.28.07.19.16.36.24.54.17.36.36.7.56 1.04.41.67.86 1.32 1.36 1.93a23.82 23.82 0 0 0 3.33 3.33c2.41 2.02 5.1 3.68 7.91 5.1.7.37 1.41.69 2.13 1 .72.31 1.42.65 2.17.94 1.48.57 3 1.02 4.55 1.37 3.09.69 6.26.98 9.42.96 6.32-.05 12.65-1.32 18.44-4.01 2.87-1.37 5.62-3.14 7.87-5.49 2.03-2.1 3.61-4.77 4.24-7.7a68.752 68.752 0 0 0 16.8 2.06c2.97.01 5.93-.1 8.87-.14 1.46-.01 2.94-.03 4.34.12.72.08 1.26.21 1.9.55.61.3 1.15.7 1.61 1.18.95.96 1.51 2.28 1.89 3.64.36 1.37.51 2.82.58 4.26.04 1.46-.03 2.9-.11 4.39-.07 1.48-.11 2.96-.15 4.44-.09 5.82.12 11.63.5 17.44l-11.25.68z" fill="#d80064" stroke-width="none" opacity="1" stroke="none"></path></g><g id="svga-group-head" transform="matrix(0.9986295346632303,-0.05233595798588131,0.05233595798588131,0.9986295346632303,-6.928307794417009,5.418608619052037)"><g id="svga-group-ears-left-move" transform="matrix(1,0,0,1,0,0)"><g id="svga-group-ears-left"><path id="SvgjsPath8643" d="M64.35 96.38s-2.97-7.29-5.67-10.81c0 0-1.55-1.23-3.05-2.34a2.359 2.359 0 0 0-3.25.41c-1.71 2.12-4.66 6.02-7.13 10.49-.41.75-.57 1.6-.43 2.44.3 1.82.93 5.1 1.69 6.43 1.08 1.89 5.54 6.62 8.65 8.24 0 0 3.51.54 6.21-1.89 2.71-2.43 2.98-12.97 2.98-12.97z" fill="#f3d4cf" stroke-width="none" opacity="1" stroke="none"></path><path id="SvgjsPath8644" d="M62.48 97.25c-.08-.23-5.87-7.75-8.12-9.17-2.26-1.43-6.99 5.94-7.22 8.42-.23 2.48 2.26 7.14 4.36 8.5 2.11 1.35 6.84 1.88 9.48-1.96 2.63-3.84 1.5-5.79 1.5-5.79z" fill="#e4b3ab" stroke-width="none" opacity="1" stroke="none"></path><path id="SvgjsPath8645" d="M44.91 94.57c-.16.42-.26.86-.28 1.3-.03.45.07.89.13 1.32.14.85.29 1.71.46 2.56.18.85.38 1.7.67 2.53.28.86.84 1.61 1.36 2.29 1.08 1.37 2.28 2.63 3.55 3.83 1.27 1.19 2.61 2.33 4.19 3.17l.06.03.06.01c1.78.19 3.55-.15 5.11-1.01.76-.44 1.48-.98 1.99-1.76.5-.75.76-1.58 1.03-2.4.48-1.65.71-3.33.9-5.01.18-1.68.24-3.36.25-5.06-.35-.98-.73-1.91-1.13-2.86-.39-.94-.82-1.87-1.26-2.79-.45-.92-.89-1.84-1.41-2.73-.51-.89-1.05-1.77-1.67-2.6l-.02-.03-.03-.02-2.04-1.6-1.04-.78a2.659 2.659 0 0 0-2.77-.2c-.43.21-.79.61-1.03.95-.53.69-1.04 1.38-1.54 2.09-1.99 2.83-3.91 5.68-5.54 8.77zm.02 1.31c0-.41.08-.83.23-1.22.73-1.52 1.65-3.01 2.6-4.44.95-1.44 1.97-2.83 3.03-4.18a79 79 0 0 1 1.62-2.01c.49-.68 1.21-1.03 1.98-.97.38.03.74.17 1.04.39l1.01.79 2.03 1.53c1.2 1.59 2.19 3.36 3.15 5.14.48.89.93 1.81 1.39 2.72.45.91.89 1.84 1.32 2.75-.11 1.66-.32 3.35-.56 5-.25 1.66-.57 3.31-1.07 4.89-.28.77-.56 1.56-1.01 2.21-.43.62-1.1 1.11-1.8 1.5-1.38.76-3.05 1.06-4.59.9-1.43-.8-2.75-1.87-4-3a38.627 38.627 0 0 1-3.55-3.69c-.54-.67-1.05-1.31-1.33-2.1-.3-.78-.54-1.61-.75-2.44-.21-.83-.39-1.67-.56-2.52-.09-.43-.19-.84-.18-1.25z" fill="#e4b3ab" stroke-width="none" opacity="1" stroke="none"></path><path id="SvgjsPath8646" d="M48.9 96.37c.25-.83.64-1.56 1.05-2.28.41-.72.88-1.39 1.37-2.05.49-.66 1.01-1.29 1.62-1.87.15-.14.31-.28.52-.38.1-.05.23-.1.39-.04.14.08.17.17.26.25.22.35.43.71.61 1.08.74 1.46 1.45 2.93 2.05 4.46.3.76.56 1.54.77 2.34.11.4.19.8.27 1.22.05.41.14.87.03 1.32-.19.88-.7 1.58-1.21 2.22-.53.64-1.13 1.21-1.77 1.71l-.05-.05c.55-.6 1.07-1.23 1.52-1.88.45-.65.84-1.37.98-2.1.11-.69-.16-1.5-.37-2.26-.23-.77-.47-1.54-.73-2.31-.5-1.54-1.01-3.09-1.7-4.55-.18-.36-.36-.73-.58-1.05-.06-.05-.13-.16-.17-.17-.03-.02-.12 0-.19.04-.16.08-.31.22-.45.35-.57.55-1.02 1.24-1.47 1.91-.84 1.37-1.65 2.81-2.09 4.29-.05.18-.09.37-.1.54a.96.96 0 0 0 0 .24c.01.08.03.19.04.28.07.38.17.76.29 1.13.25.74.58 1.47.97 2.14.1.17.2.34.31.5.05.08.11.15.16.23.05.07.14.16.11.13-.03.01.1.01.25-.06.15-.08.3-.17.45-.28.61-.46 1.17-1.05 1.64-1.67.06-.08.12-.16.17-.23l.07-.11c.01-.03.02-.05.03-.08.03-.13.03-.32 0-.51-.05-.38-.16-.76-.29-1.14-.26-.76-.56-1.52-.89-2.26l.06-.03c.44.69.83 1.41 1.17 2.16.16.38.32.77.41 1.19.05.21.08.44.04.7l-.06.21c-.03.05-.05.1-.08.15-.05.1-.11.18-.17.27-.48.69-1.01 1.33-1.67 1.89-.17.14-.35.27-.57.38-.22.09-.52.24-.92.05-.21-.14-.24-.22-.32-.3-.07-.09-.14-.17-.2-.26-.13-.18-.24-.35-.35-.54-.42-.73-.77-1.49-1.02-2.3-.12-.4-.22-.82-.28-1.24-.01-.11-.03-.21-.04-.33-.01-.13-.01-.25.01-.37.01-.26.06-.47.12-.68z" fill="#c5796d" stroke-width="none" opacity="1" stroke="none"></path></g></g><g id="svga-group-ears-right-move" transform="matrix(1,0,0,1,0,0)"><g id="svga-group-ears-right"><path id="SvgjsPath8647" d="M135.65 96.38s2.97-7.29 5.67-10.81c0 0 1.55-1.23 3.05-2.34 1.02-.76 2.45-.58 3.25.41 1.71 2.12 4.66 6.02 7.13 10.49.41.75.57 1.6.43 2.44-.3 1.82-.93 5.1-1.69 6.43-1.08 1.89-5.54 6.62-8.65 8.24 0 0-3.51.54-6.21-1.89-2.71-2.43-2.98-12.97-2.98-12.97z" fill="#f3d4cf" stroke-width="none" opacity="1" stroke="none"></path><path id="SvgjsPath8648" d="M137.52 97.25c.08-.23 5.87-7.75 8.12-9.17s6.99 5.94 7.22 8.42c.23 2.48-2.26 7.14-4.36 8.5-2.11 1.35-6.84 1.88-9.48-1.96-2.63-3.84-1.5-5.79-1.5-5.79z" fill="#e4b3ab" stroke-width="none" opacity="1" stroke="none"></path><path id="SvgjsPath8649" d="M149.55 85.79c-.5-.7-1.02-1.4-1.54-2.09-.24-.34-.6-.74-1.03-.95-.43-.22-.92-.32-1.41-.29-.49.03-.96.21-1.36.49l-1.04.78-2.04 1.6-.03.02-.02.03c-.62.83-1.16 1.71-1.67 2.6-.52.89-.96 1.81-1.41 2.73-.44.92-.87 1.85-1.26 2.79-.39.95-.78 1.88-1.13 2.86.01 1.7.07 3.38.25 5.06.18 1.68.41 3.36.9 5.01.27.81.53 1.64 1.03 2.4.52.78 1.23 1.32 1.99 1.76 1.56.86 3.33 1.19 5.11 1.01l.06-.01.06-.03c1.58-.85 2.92-1.99 4.19-3.17 1.27-1.19 2.47-2.45 3.55-3.83.52-.68 1.08-1.43 1.36-2.29.3-.83.49-1.68.67-2.53.18-.85.33-1.7.46-2.56.06-.42.15-.86.13-1.32-.02-.45-.12-.89-.28-1.3-1.63-3.08-3.55-5.93-5.54-8.77zm5.35 11.34c-.17.84-.35 1.69-.56 2.52-.21.83-.45 1.66-.75 2.44-.28.79-.79 1.43-1.33 2.1a35.347 35.347 0 0 1-3.55 3.69c-1.25 1.13-2.57 2.2-4 3-1.54.16-3.21-.14-4.59-.9-.7-.39-1.37-.87-1.8-1.5-.46-.64-.74-1.43-1.01-2.21-.5-1.58-.82-3.23-1.07-4.89-.24-1.66-.45-3.34-.56-5 .43-.91.87-1.84 1.32-2.75.46-.91.9-1.82 1.39-2.72.96-1.77 1.94-3.55 3.15-5.14l2.03-1.53 1.01-.79c.3-.22.66-.36 1.04-.39.77-.06 1.49.29 1.98.97a79 79 0 0 1 1.62 2.01c1.07 1.35 2.09 2.74 3.03 4.18.94 1.43 1.87 2.92 2.6 4.44.15.39.22.81.23 1.22 0 .41-.1.82-.18 1.25z" fill="#e4b3ab" stroke-width="none" opacity="1" stroke="none"></path><path id="SvgjsPath8650" d="M151.1 96.37c-.25-.83-.64-1.56-1.05-2.28-.41-.72-.88-1.39-1.37-2.05-.49-.66-1.01-1.29-1.62-1.87-.15-.14-.31-.28-.52-.38-.1-.05-.23-.1-.39-.04-.14.08-.17.17-.26.25-.22.35-.43.71-.61 1.08-.74 1.46-1.45 2.93-2.05 4.46-.3.76-.56 1.54-.77 2.34-.11.4-.19.8-.27 1.22-.05.41-.14.87-.03 1.32.19.88.7 1.58 1.21 2.22.53.64 1.13 1.21 1.77 1.71l.05-.05c-.55-.6-1.07-1.23-1.52-1.88-.45-.65-.84-1.37-.98-2.1-.11-.69.16-1.5.37-2.26.23-.77.47-1.54.73-2.31.5-1.54 1.01-3.09 1.7-4.55.18-.36.36-.73.58-1.05.06-.05.13-.16.17-.17.03-.02.12 0 .19.04.16.08.31.22.45.35.57.55 1.02 1.24 1.47 1.91.84 1.37 1.65 2.81 2.09 4.29.05.18.09.37.1.54.01.09.01.17 0 .24-.01.08-.03.19-.04.28-.07.38-.17.76-.29 1.13-.25.74-.58 1.47-.97 2.14-.1.17-.2.34-.31.5-.05.08-.11.15-.16.23-.05.07-.14.16-.11.13.03.01-.1.01-.25-.06-.15-.08-.3-.17-.45-.28a8.654 8.654 0 0 1-1.64-1.67c-.06-.08-.12-.16-.17-.23l-.07-.11c-.01-.03-.02-.05-.03-.08-.03-.13-.03-.32 0-.51.05-.38.16-.76.29-1.14.26-.76.56-1.52.89-2.26l-.06-.03c-.44.69-.83 1.41-1.17 2.16-.16.38-.32.77-.41 1.19-.05.21-.08.44-.04.7l.06.21c.03.05.05.1.08.15.05.1.11.18.17.27.48.69 1.01 1.33 1.67 1.89.17.14.35.27.57.38.22.09.52.24.92.05.21-.14.24-.22.32-.3.07-.09.14-.17.2-.26.13-.18.24-.35.35-.54.42-.73.77-1.49 1.02-2.3.12-.4.22-.82.28-1.24.01-.11.03-.21.04-.33.01-.13.01-.25-.01-.37a2.75 2.75 0 0 0-.12-.68z" fill="#c5796d" stroke-width="none" opacity="1" stroke="none"></path></g></g><g id="svga-group-faceshape-wrap"><g id="svga-group-faceshape-single"><path id="SvgjsPath9423" d="M135.9 49.8c-6.7-7.4-11.3-13.2-28.8-17.3-1.8-.4-12.3-.4-14.1 0-17.5 4.1-22.1 9.9-28.8 17.3-7.1 7.8-9.5 29-9.5 29 1.1 10.8 4.4 36.3 6.4 39 10.8 14 22.5 27 26.2 29.2 2.9 1.8 22.6 1.8 25.5 0 3.7-2.2 15.3-15.2 26.2-29.2 2.1-2.7 5.4-28.2 6.4-39 0 0-2.4-21.2-9.5-29z" fill="#f3d4cf" stroke-width="none" opacity="1"></path><path id="SvgjsPath9424" d="M107.1 32.5c-1.8-.4-12.3-.4-14.1 0-17.5 4.1-22.1 9.9-28.8 17.3-7.1 7.8-9.5 29-9.5 29 1.1 10.8 4.4 36.3 6.4 39 10.8 14 22.5 27 26.2 29.2 2.9 1.8 22.6 1.8 25.5 0 3.7-2.2 15.3-15.2 26.2-29.2 2.1-2.7 5.4-28.2 6.4-39 0 0-2.4-21.2-9.5-29-6.7-7.4-11.3-13.2-28.8-17.3zm35 31.2c.7 2.5 1.2 5 1.6 7.5.4 2.5.8 5 1 7.5-.5 3.8-1.1 7.5-1.7 11.3l-.9 5.7c-.3 1.9-.6 3.8-1 5.6-.7 3.7-1.3 7.5-2.2 11.2-.2.9-.4 1.8-.7 2.7-.1.4-.3.8-.4 1.2l-.1.2v.1l-.1.1-.2.3-1.8 2.2-1.8 2.2c-4.8 5.9-9.7 11.8-14.9 17.3-1.3 1.4-2.6 2.8-3.9 4-.3.3-.7.6-1 .9l-.5.5-.5.4c-.3.3-.7.5-1 .7 0 0-.1 0-.1.1l-.2.1c-.1 0-.2.1-.3.1-.1 0-.2.1-.3.1-.8.2-1.7.3-2.6.4-.9.1-1.8.2-2.8.3-1.9.1-3.8.2-5.6.2-1.9 0-3.8 0-5.6-.1-.9 0-1.9-.1-2.8-.2-.9-.1-1.8-.2-2.7-.4-.2 0-.4-.1-.6-.2l-.2-.1s-.1 0-.1-.1c-.3-.2-.7-.4-1-.7l-.5-.4-.5-.5c-.3-.3-.7-.6-1-.9-1.4-1.3-2.7-2.6-4-4-5.3-5.5-10.4-11.2-15.3-17.1l-1.8-2.2-1.8-2.2-.2-.3-.1-.1-.1-.1-.1-.1s0-.1-.1-.1l-.1-.3c-.2-.4-.3-.8-.5-1.3-.3-.9-.5-1.8-.7-2.7-.8-3.7-1.5-7.5-2.1-11.3-.3-1.9-.6-3.8-.8-5.7-.3-1.9-.5-3.8-.7-5.7-.5-3.8-.8-7.5-1.2-11.3.7-4.6 1.7-9.2 3-13.7.7-2.2 1.4-4.5 2.3-6.6.4-1.1.9-2.1 1.4-3.1s1.1-2 1.7-2.9c.2-.2.3-.4.5-.7.2-.2.3-.4.5-.6.3-.4.8-.8 1.2-1.3.8-.9 1.6-1.7 2.4-2.6l1.2-1.2 1.2-1.2c.4-.4.8-.8 1.3-1.2.4-.4.9-.7 1.3-1.1 3.5-2.8 7.7-4.9 12-6.5l1.6-.6c.5-.2 1.1-.4 1.7-.5.6-.2 1.1-.4 1.7-.5l1.7-.5.8-.2.2-.1h.2c.1 0 .2 0 .3-.1.5-.1 1.1-.1 1.7-.2 1.2-.1 2.3-.1 3.5-.2 2.3-.1 4.7-.1 7-.1h.8c.2 0 .5.1.8.2l1.7.4.9.2.9.2 1.7.4c2.3.6 4.5 1.3 6.7 2.3.3.1.5.2.8.3l.8.4c.5.3 1.1.5 1.6.8l1.5.9 1.5.9c2 1.3 3.8 2.8 5.4 4.5 1.7 1.7 3.3 3.4 4.9 5.2 1.7 1.9 2.9 4.2 3.9 6.6.9 2.7 1.7 5.2 2.3 7.6z" fill="#c5796d" stroke-width="none" opacity="1"></path></g></g><g id="svga-group-mouth-single-move" transform="matrix(1,0,0,1,0,0)"><g id="svga-group-mouth-single"><path id="SvgjsPath8628" d="M85.15 123.95s3.36-.26 5.22-1.19c3.38-1.69 7.26-2.61 11.47-2.32 5.73.39 10.12 4.71 14.07 3.71 0 0-4.38 4.04-8.8 4.97-4.42.93-11.29.85-14.86-.7-3.57-1.57-7.1-4.47-7.1-4.47z" fill="#da7c87" stroke-width="none" opacity="1" stroke="none"></path><path id="SvgjsPath8629" d="M100.64 129.91c-3.15 0-6.35-.4-8.47-1.32-3.55-1.54-7.11-4.46-7.14-4.49l-.39-.32.5-.04c.03 0 3.34-.27 5.14-1.17 3.66-1.83 7.55-2.62 11.57-2.35 2.72.18 5.17 1.25 7.33 2.2 2.49 1.09 4.64 2.03 6.68 1.51l.78-.2-.59.54c-.18.17-4.47 4.09-8.89 5.02-1.85.4-4.17.62-6.52.62zm-14.97-5.81c1.01.79 3.84 2.89 6.66 4.12 3.63 1.58 10.48 1.59 14.74.69 3.41-.72 6.84-3.36 8.15-4.45-1.93.2-3.93-.67-6.2-1.66-2.13-.93-4.54-1.99-7.19-2.17-3.95-.27-7.77.51-11.36 2.3-1.47.73-3.78 1.06-4.8 1.17z" fill="#d26d79" stroke-width="none" opacity="1" stroke="none"></path><path id="SvgjsPath8630" d="M82.94 122.29c1.06 1.09 2.48 1.79 3.94 2.11 1.48.35 2.99.13 4.52 0 1.53-.14 3.05-.31 4.57-.47 1.53-.16 3.04-.34 4.63-.39 1.6.01 3.13.28 4.64.48.76.12 1.51.22 2.26.31.75.11 1.5.18 2.24.22.74.05 1.49.05 2.22 0 .75-.06 1.49-.17 2.23-.3.74-.13 1.48-.31 2.21-.52.73-.2 1.45-.45 2.16-.75.03-.01.06 0 .07.03.01.02 0 .05-.02.07-1.29.88-2.75 1.47-4.25 1.91-.75.23-1.52.38-2.3.51-.79.11-1.59.14-2.38.13-.79-.03-1.57-.1-2.34-.19-.77-.1-1.53-.24-2.29-.37-1.51-.28-3.01-.6-4.48-.67-1.48-.01-3.03.12-4.55.23-1.53.11-3.06.23-4.6.31-.77.03-1.53.08-2.31.08-.78.01-1.57-.09-2.32-.3-1.51-.4-2.92-1.19-3.95-2.36a.06.06 0 0 1 0-.08c.04-.01.08-.01.1.01z" fill="#cb5f6c" stroke-width="none" opacity="1" stroke="none"></path></g></g><g id="svga-group-eyes-left-move" transform="matrix(1,0,0,1,1,0)"><g id="svga-group-eyes-left"><g id="svga-group-eyesback-left"><path id="SvgjsPath9815" d="M80.2 77.2c7.5 0 13.5 5.8 13.5 13s-6 13-13.5 13-13.5-5.8-13.5-13 6-13 13.5-13z" fill="#ffffff" stroke-width="none" opacity="1"></path></g><g id="svga-group-eyesiriswrapper-left" transform="matrix(1,0,0,1,0,0)"><g id="svga-group-eyesiriscontrol-left" transform="matrix(1,0,0,1,0,0)"><g id="svga-group-eyesiris-left"><path id="SvgjsPath8720" d="M80.2 84.6c3.1 0 5.6 2.5 5.6 5.6s-2.5 5.6-5.6 5.6-5.6-2.5-5.6-5.6 2.5-5.6 5.6-5.6z" fill="#7b5c33" stroke-width="none" opacity="1"></path><path id="SvgjsPath8721" d="M80.2 87.2c1.7 0 3 1.3 3 3s-1.3 3-3 3-3-1.3-3-3 1.3-3 3-3z" fill="#000000" stroke-width="none" opacity="1"></path><path id="SvgjsPath8722" d="m79.5 87.8-.6-.6c-.2-.2-.5-.3-.8-.3s-.6.1-.8.3c-.2.2-.3.5-.3.8s.1.6.3.8l.6.6c.2.2.5.3.8.3s.6-.1.8-.3c.4-.6.4-1.2 0-1.6zm2.7 5.1c1 0 1-1.5 0-1.5-.9 0-.9 1.5 0 1.5z" fill="#ffffff" stroke-width="none" opacity="1"></path></g></g></g><g id="svga-group-eyesfront-left"><path id="SvgjsPath9823" d="M80.2 76.7c-7.8 0-14.1 6.1-14.1 13.6s6.3 13.6 14.1 13.6 14.1-6.1 14.1-13.6S88 76.7 80.2 76.7zm3.2 20.4c-3.9 1.7-7.2.9-9.8-.2S67 91.4 67 91.4s3.8-3.7 5.9-4.5 10-1.7 12.2 0 4.4 3.8 4.4 3.8c-.5.8-2.2 4.8-6.1 6.4z" fill="#f3d4cf" stroke-width="none" opacity="1" stroke="none"></path><path id="SvgjsPath9824" d="M66.8 91.3s4.8-3.6 6-4.3 7.7-1.2 10.7-.4c4.3 1.2 7.1 5.6 7.1 5.6s0-2.4-.7-5.1c-.8-2.7-5.2-6.9-5.2-6.9s-5.5-1.9-8.4-.9-4.7 3.9-6.3 6.2c-1.6 2.2-2.7 3.7-3.2 5.8z" fill="#ebc3bd" stroke-width="none" opacity="1" stroke="none"></path><path id="SvgjsPath9825" d="M90.6 92.4v-.2c0-1.2-.1-2.3-.3-3.5-.1-.6-.2-1.2-.4-1.7-.2-.6-.4-1.1-.7-1.6-.6-1-1.3-1.9-2.1-2.8s-1.6-1.8-2.4-2.6h-.1c-1-.3-2-.6-3.1-.8s-2.1-.4-3.2-.4c-.5 0-1.1 0-1.6.1-.6.1-1.1.3-1.6.6-1 .5-1.8 1.2-2.5 2s-1.4 1.7-1.9 2.5c-.6.9-1.2 1.8-1.8 2.6-1.1 1.8-2.1 2.6-2.6 4.7l.4.3c1.5 1.8 3.2 3.4 5.1 4.8.5.3 1 .7 1.6.9.5.2 1.1.4 1.7.6 1.1.3 2.3.5 3.5.6 2.4 0 4.8-.7 6.7-2.2.9-.7 1.7-1.6 2.4-2.6.7-.9 1.1-1.7 1.6-2.7.1.1 1.1 1.2 1.1 1.3l.2.1zm-1.1-1.5c-.1-.1-.1-.1-.1 0-.3.4-.5.8-.8 1.3-.3.5-.7.9-1 1.4-.7.9-1.5 1.7-2.5 2.4-.9.7-2 1.1-3.1 1.4-1.1.3-2.2.5-3.4.5-1.1 0-2.3-.2-3.4-.5-.6-.2-1.1-.3-1.6-.6-.5-.2-1-.5-1.5-.8-.9-.7-1.8-1.4-2.7-2.2-.8-.8-1.6-1.6-2.3-2.4l-.4-.3c.1-.5.3-1 .5-1.4.1-.1.1-.2.2-.4.5-.9 1.1-1.8 1.7-2.6 1.2-1.7 2.4-3.5 3.8-5 .7-.7 1.5-1.4 2.4-1.9.4-.2.9-.4 1.4-.5.5-.1 1-.1 1.5-.1 2 .1 4.1.5 6.1 1.1.8.8 1.6 1.6 2.3 2.4.8.9 1.5 1.8 2.1 2.7.3.5.6 1 .7 1.5.2.6.3 1.1.4 1.7.2 1.1.3 2.1.4 3.2.2.1-.7-.9-.7-.9z" fill="#a09292" stroke-width="none" opacity="1" stroke="none"></path><path id="SvgjsPath9826" d="M90.7 92.5s-1.5-4.2-3.9-5.8c-1.8-1.2-7.3-2.6-11.4-2s-8.5 3.7-9.6 4.1-2.9 1-4.6.1c0 0 2.7 2.6 5.1 3.2 0 0 3.9-3.1 7-4.3s6.7-1.6 9.7-.9c2.9.8 4.1 1.5 7.7 5.6z" fill="#a09292" stroke-width="none" opacity="1" stroke="none"></path></g></g></g><g id="svga-group-eyes-right-move" transform="matrix(1,0,0,1,-1,0)"><g id="svga-group-eyes-right"><g id="svga-group-eyesback-right"><path id="SvgjsPath9816" d="M119.8 77.2c7.5 0 13.5 5.8 13.5 13s-6 13-13.5 13-13.5-5.8-13.5-13 6-13 13.5-13z" fill="#ffffff" stroke-width="none" opacity="1"></path></g><g id="svga-group-eyesiriswrapper-right" transform="matrix(1,0,0,1,0,0)"><g id="svga-group-eyesiriscontrol-right" transform="matrix(1,0,0,1,0,0)"><g id="svga-group-eyesiris-right"><path id="SvgjsPath8723" d="M119.8 85.3c2.7 0 4.9 2.2 4.9 4.9s-2.2 4.9-4.9 4.9-4.9-2.2-4.9-4.9 2.2-4.9 4.9-4.9z" fill="#7b5c33" stroke-width="none" opacity="1"></path><path id="SvgjsPath8724" d="M119.8 87.5c1.5 0 2.7 1.2 2.7 2.7s-1.2 2.7-2.7 2.7-2.7-1.2-2.7-2.7 1.2-2.7 2.7-2.7z" fill="#000000" stroke-width="none" opacity="1"></path><path id="SvgjsPath8725" d="M119.2 88.1c-.2-.2-.3-.4-.5-.5s-.4-.3-.7-.3c-.2 0-.5.1-.7.3-.2.2-.3.4-.3.7 0 .2.1.5.3.7.2.2.4.3.5.5s.4.3.7.3c.2 0 .5-.1.7-.3.3-.5.3-1.1 0-1.4zm2.4 4.5c.8 0 .8-1.3 0-1.3s-.8 1.3 0 1.3z" fill="#ffffff" stroke-width="none" opacity="1"></path></g></g></g><g id="svga-group-eyesfront-right"><path id="SvgjsPath9827" d="M119.8 76.7c-7.8 0-14.1 6.1-14.1 13.6s6.3 13.6 14.1 13.6 14.1-6.1 14.1-13.6-6.3-13.6-14.1-13.6zm6.9 21c-2.6 1.2-7 1.3-10.9-.4s-5.4-5.8-6-6.7c0 0 1.8-1.8 4.1-3.5 2.2-1.8 10.3-1.1 12.4-.2 2.1.9 5.9 4.3 5.9 4.3s-2.9 5.3-5.5 6.5z" fill="#f3d4cf" stroke-width="none" opacity="1" stroke="none"></path><path id="SvgjsPath9830" d="M132.1 91s-2.1-1.7-6.3-3c-1.3-.4-7.2-1.4-10.2-.8-3 .6-7 4.8-7 4.8s0-2 .7-4.3c.8-2.2 5.2-5.7 5.2-5.7s4.8-.8 7.6 0 5.5 2.5 7 4.3c1.7 1.9 2.5 3 3 4.7z" fill="#ebc3bd" stroke-width="none" opacity="1" stroke="none"></path><path id="SvgjsPath9831" d="M131.6 89.4c-.5-.8-1-1.6-1.6-2.4-.3-.4-.6-.8-.9-1.1-.3-.4-.7-.7-1.1-1-.7-.6-1.5-1.2-2.4-1.7-.8-.5-1.7-.9-2.6-1.2-.9-.3-1.9-.5-2.8-.6-1.9-.1-3.8 0-5.7.3h-.2c-.8.6-1.5 1.3-2.2 2s-1.4 1.4-2 2.3c-.3.4-.6.8-.8 1.3-.2.5-.3 1-.4 1.5-.2 1-.3 2.1-.3 3.1v.2l.2-.1c.4-.4.8-.8 1.2-1.1.5.9.9 1.9 1.5 2.7.7 1 1.5 2 2.5 2.7 1 .8 2.1 1.3 3.3 1.7 1.2.4 2.4.6 3.6.7s2.4.1 3.6-.2c.6-.1 1.2-.3 1.8-.5.3-.1.6-.2.9-.4.3-.2.5-.3.8-.5 1-.8 1.8-1.8 2.5-2.8.7-1 1.3-2 1.9-3-.2.1-.2-.9-.8-1.9zm-1.6 4.7c-.7 1-1.5 1.9-2.4 2.7-.9.8-2.1 1-3.2 1.3-1.2.2-2.3.2-3.5.2-1.2-.1-2.3-.3-3.5-.6-1.1-.3-2.2-.8-3.2-1.5-1.8-1.3-3.2-3.4-4.3-5.4-.3.3-.7.6-1.1.9v-.2c0-1 .2-1.5.4-2.5.1-.5.3-1 .5-1.4.2-.4.5-.8.8-1.2.6-.8 1.3-1.5 2.1-2.2.7-.7 1.4-1.3 2.2-1.9 1.8-.2 3.7-.3 5.5-.2.9.1 1.8.2 2.7.5.9.3 1.7.7 2.6 1.1s1.6 1 2.3 1.6c.4.3.7.6 1 1 .3.3.6.7.9 1.1.5.6 2.2 4 2.2 4-.6.8-1.3 1.8-2 2.7z" fill="#a09292" stroke-width="none" opacity="1" stroke="none"></path><path id="SvgjsPath9832" d="M108.2 92.6s4.6-4.2 6.9-4.9c2.3-.7 8.4 0 10.4.6 1.9.6 6.8 3.4 7.5 3.8s3.6-1.8 4.2-2.6c0 0-2.2.8-5-.5-1-.4-6.1-3.2-8.9-3.3-2.9-.1-7.8 0-9.2.8-3.5 1.7-5.9 6.1-5.9 6.1z" fill="#a09292" stroke-width="none" opacity="1" stroke="none"></path></g></g></g><g id="svga-group-facehighlight-single"></g><g id="svga-group-eyebrows-left-move" transform="matrix(1,0,0,1,0,0)"><g id="svga-group-eyebrows-left-rotate" transform="matrix(1,1.7453292519943295e-9,-1.7453292519943295e-9,1,1.2995914744351467e-7,-1.3809918186780124e-7)"><g id="svga-group-eyebrows-left"><path id="SvgjsPath9983" d="M64.55 76.13s7.64-5.4 8.86-5.62 19.49 3.09 19.95 4.12c.46 1.03-.07 3.12-1.4 3.76-1.33.64-12.63-3.98-17.91-5.17-2-.45-9.5 2.91-9.5 2.91z" fill="#2a232b" stroke-width="none" opacity="1"></path><path id="SvgjsPath9984" d="M64.52 76.15c.01.02.08.01.08 0l.03-.01.06-.02.12-.05.23-.09.47-.18.94-.35c.63-.23 1.26-.45 1.89-.67 1.26-.44 2.54-.84 3.83-1.12.32-.07.64-.12.96-.16.32-.03.63-.04.89.02.64.16 1.28.34 1.92.54 1.27.39 2.55.8 3.81 1.23 2.54.85 5.07 1.71 7.65 2.49.64.19 1.29.39 1.95.55.66.16 1.32.33 2.04.38.19 0 .37.02.62-.06l.09-.03.06-.04.12-.07c.08-.04.15-.1.23-.16.29-.23.51-.51.69-.8.34-.59.52-1.24.53-1.9 0-.33-.03-.67-.16-.99-.02-.05-.02-.07-.06-.13-.04-.07-.09-.09-.13-.13-.08-.06-.16-.1-.24-.14-.16-.08-.32-.13-.48-.19-.65-.22-1.3-.39-1.95-.55-1.31-.33-2.62-.61-3.94-.9-2.63-.58-5.25-1.18-7.9-1.68-1.33-.24-2.66-.47-4.01-.63-.34-.04-.68-.08-1.03-.09-.09 0-.18-.01-.28-.01-.05 0-.1 0-.17.01-.06.01-.1.03-.15.04-.21.06-.36.14-.52.22-.62.32-1.18.67-1.74 1.02-1.12.71-2.19 1.48-3.27 2.24-.54.38-1.07.77-1.59 1.17l-.79.59-.39.3-.19.15-.1.08c-.05.01-.1.08-.12.12zm.92-.49-.34.16.32-.2.83-.53 1.67-1.06c1.11-.71 2.23-1.41 3.36-2.09.56-.34 1.14-.67 1.71-.95l.21-.1c.07-.04.13-.04.19-.07l.09-.03h.08c.07 0 .15 0 .23.01.32.02.65.06.98.1 1.32.18 2.65.38 3.98.59 1.33.2 2.66.4 3.99.62 1.33.22 2.65.45 3.97.72 1.32.27 2.63.57 3.92.92.65.17 1.29.36 1.9.6.15.06.3.12.44.19.07.04.13.07.18.11.02.02.05.04.04.04.01 0 .02.06.03.08.09.27.11.57.09.87a3.7 3.7 0 0 1-.57 1.69c-.17.25-.37.47-.6.64-.06.04-.12.09-.18.12l-.09.05-.05.03h-.03c-.07.03-.24.02-.38.01-.62-.06-1.27-.24-1.91-.42-.64-.18-1.28-.38-1.91-.58-2.54-.82-5.05-1.74-7.61-2.57-1.28-.41-2.56-.82-3.86-1.17-.65-.18-1.31-.35-1.98-.49-.4-.09-.77-.05-1.12 0-.35.05-.69.12-1.02.2-1.33.34-2.58.82-3.83 1.32-.62.25-1.23.52-1.84.79l-.89.4z" fill="#1b141c" stroke-width="none" opacity="1"></path></g></g></g><g id="svga-group-eyebrows-right-move" transform="matrix(1,0,0,1,0,0)"><g id="svga-group-eyebrows-right-rotate" transform="matrix(1,1.7453292519943295e-9,-1.7453292519943295e-9,1,1.365545756470965e-7,-2.1299837271726574e-7)"><g id="svga-group-eyebrows-right"><path id="SvgjsPath9985" d="M135.56 80.74s-6.82-5.75-7.95-6.03c-1.13-.28-18.27 2.16-18.75 3.17-.48 1.01-.1 3.12 1.11 3.82s11.94-3.37 16.91-4.31c1.88-.36 8.68 3.35 8.68 3.35z" fill="#2a232b" stroke-width="none" opacity="1"></path><path id="SvgjsPath9986" d="m135.5 80.64-.09-.08-.17-.16-.35-.32-.7-.63c-.47-.42-.94-.84-1.42-1.24-.96-.81-1.92-1.62-2.93-2.39-.5-.38-1.01-.76-1.56-1.1-.14-.08-.28-.17-.47-.24-.05-.02-.09-.04-.14-.05-.06-.01-.12-.02-.16-.02-.09-.01-.18-.01-.26-.01-.33 0-.64.02-.96.05-1.26.1-2.51.26-3.76.44-2.49.37-4.96.85-7.43 1.3-1.24.23-2.47.45-3.7.72-.61.14-1.23.28-1.84.46-.15.05-.31.1-.46.17-.08.03-.15.07-.23.13-.04.04-.08.06-.13.12-.04.06-.04.09-.06.13-.13.32-.18.65-.2.98-.02.66.12 1.32.4 1.93.15.3.34.59.6.83.06.06.13.12.2.17l.11.08.06.04.08.04c.23.09.39.08.57.09.68-.02 1.29-.15 1.92-.28.62-.13 1.23-.3 1.84-.46 2.43-.66 4.83-1.4 7.24-2.13 1.2-.37 2.4-.72 3.6-1.05.6-.16 1.21-.32 1.81-.44.24-.06.54-.03.83.02.29.05.59.12.89.21 1.18.35 2.35.81 3.5 1.3.57.25 1.15.5 1.72.76l.85.4.43.2.21.1.11.05.05.03.03.01c-.01 0 .06.02.07 0a.339.339 0 0 0-.1-.16zm-1.56-.86c-.55-.3-1.11-.6-1.67-.88-1.13-.55-2.27-1.1-3.49-1.5-.31-.1-.62-.18-.94-.25-.32-.06-.67-.11-1.04-.05-.63.11-1.25.25-1.86.39-1.23.29-2.44.64-3.65.99-2.41.71-4.8 1.5-7.2 2.21-.6.17-1.2.34-1.81.49-.6.15-1.21.29-1.79.33-.13.01-.29 0-.36-.03l-.03-.01-.04-.03-.08-.06a.653.653 0 0 1-.16-.13c-.21-.18-.39-.41-.53-.67a3.91 3.91 0 0 1-.44-1.71c0-.3.03-.6.13-.86.01-.03.03-.08.03-.08l.04-.04c.05-.04.11-.07.18-.1.13-.07.28-.12.42-.17.58-.21 1.19-.36 1.8-.5 1.22-.29 2.45-.53 3.69-.73 1.24-.21 2.48-.37 3.73-.53 1.25-.16 2.49-.3 3.74-.43 1.25-.14 2.49-.28 3.73-.4.31-.03.62-.05.92-.06h.21c.03 0 .06.01.07.01.02.01.05.02.08.03.06.03.11.04.17.08l.19.11c.52.31 1.04.66 1.54 1.03 1.01.73 2.02 1.48 3.02 2.24l1.5 1.14.75.57.28.22-.31-.18-.82-.44z" fill="#1b141c" stroke-width="none" opacity="1"></path></g></g></g><g id="svga-group-nose-single-move" transform="matrix(1,0,0,1,0,0)"><g id="svga-group-nose-single"><path id="SvgjsPath9009" d="M94.71 101.62c-.22.12-4.9 2.79-5.07 6.17-.17 3.38 1.94 4.56 3.72 3.13 1.77-1.44 2.37-1.1 3.46-.17 1.1.93 4.23 1.44 5.49.42 1.27-1.01 1.86-1.44 3.3 0 1.44 1.44 5.32-.68 4.06-5.24S99.45 99 94.71 101.62z" fill="url(#SvgjsLinearGradient9010)" opacity="1"></path><path id="SvgjsPath9013" d="M94.71 101.62c-.97.58-1.89 1.25-2.7 2.03-.82.77-1.54 1.67-1.96 2.71-.12.25-.17.53-.25.8-.02.14-.03.28-.05.41-.02.14-.03.27-.02.42-.01.56.06 1.12.22 1.64.16.52.43 1.01.84 1.34.4.34.95.43 1.45.31.13-.02.24-.09.37-.12.11-.06.23-.12.34-.19l.32-.24c.11-.09.22-.18.34-.27.46-.34.96-.71 1.65-.76.34-.02.68.09.95.24.27.15.51.34.73.51.39.34.89.52 1.4.67 1.02.28 2.17.37 3.14.07.25-.07.44-.19.63-.32.22-.18.45-.36.69-.53.25-.17.52-.35.88-.43.36-.09.76-.02 1.07.12.31.15.56.34.79.54.12.1.22.2.33.31.09.09.16.14.25.2.37.21.87.21 1.33.05.94-.32 1.68-1.19 1.97-2.19.31-1 .24-2.13-.07-3.16-.32-1.01-1.04-1.9-1.9-2.59-.86-.7-1.85-1.23-2.89-1.64-1.04-.4-2.14-.7-3.25-.85-1.11-.15-2.25-.19-3.37-.05-1.12.12-2.23.43-3.23.97zm0 0c.99-.54 2.1-.86 3.22-1 1.12-.15 2.26-.15 3.39-.02 2.24.25 4.5.93 6.37 2.3.92.68 1.74 1.59 2.16 2.72.2.56.32 1.13.37 1.73.04.59.01 1.2-.16 1.78-.32 1.16-1.15 2.25-2.36 2.69-.59.21-1.32.26-1.95-.09-.08-.05-.15-.1-.22-.15a3.25 3.25 0 0 1-.19-.17c-.1-.09-.19-.19-.29-.27-.2-.18-.41-.32-.61-.42-.2-.1-.39-.12-.58-.08-.2.04-.41.16-.63.31-.22.15-.43.32-.65.49-.27.2-.57.36-.87.44-.6.19-1.21.21-1.8.18a7.96 7.96 0 0 1-1.74-.32c-.56-.18-1.14-.43-1.59-.85-.42-.36-.84-.71-1.29-.69-.46.01-.95.3-1.4.61-.11.08-.22.16-.33.25l-.37.25c-.13.07-.27.14-.41.21-.15.04-.29.11-.44.13-.6.12-1.28-.03-1.72-.45-.46-.4-.73-.96-.87-1.51-.14-.56-.2-1.14-.16-1.71 0-.14.02-.29.04-.43s.04-.29.07-.42c.09-.27.15-.56.28-.81.21-.53.55-1 .88-1.45.36-.44.74-.86 1.16-1.24.8-.78 1.72-1.45 2.69-2.01z" fill="#c5796d" stroke-width="none" opacity="1" stroke="none"></path></g></g><g id="svga-group-hair-front"><path id="SvgjsPath9370" d="M103 30.3s-8.4-2.1-19.6 1.5c0 0-16.3 7.2-22.9 18.9s-11 21.4-11.9 34.4c-.9 13-2.2 30.6-1.8 42.2 0 0 3.8 49.9 5.6 58.2l8.1-1.3s-5.7-15.1-7-26.2c0 0 7.8 22 11.8 26.1l4.3-.6s-6.4-16.4-7.8-29.1c0 0 9.3 19 12 24l8.1.3s-9.7-19.8-13.3-32.1c0 0 5.8 13 8.4 17.2 0 0-9.4-41.6-10.4-48.6s-4.8-33.8-1.8-42.6c0 0 .7 11.7 1.8 16.5l3.3-8.8s-.7-12.1-.3-15.4c0 0 1 10.4 1.6 13 0 0 6.1-2.7 13-2.6 0 0-1-5.6-1.1-9 0 0 1.6 6 2.8 9.1l4.1.7s-3-12-2.8-16.1c0 0 4.7 14.3 8.3 19.7 0 0-2-8.7-2.3-14.5l5 15.3s5.3-18.1 6-25.1c0 0-1.1 20.5-2.1 24.8 0 0 4.4-10.7 5-13.6l-1 13.1 6.6-.4s4.4-14 4.6-19.8c0 0 2.1 17.5.7 23.2 0 0 2.7-12 2.6-20 0 0 1.7 5 2.6 9.3l1.4-8s4.1 7.6 4.1 18.4c0 0 1.9-9.7 1.6-20.1 0 0 4.9 14.5 5 20.7s-.1 7.6-.1 7.6l2.9-9.4s-1.7 26.2-2.9 41.2-6 44.8-6 44.8l4.1-8.3-6.3 23.7 4.8 1.9 7.6-13.3-5.7 14.7s11.1-14.8 13.3-21.2c0 0-2.7 16.8-4.1 21 0 0 7-2.5 8.1-5.3.3-.7 3.4-19.1 3.4-19.1l-1.4 20.4s4-9.8 5-14.5c1-4.7-.3-23.1-.3-23.1s2.7 13.1 4.9 18.4c0 0-4.1-23.2-4.6-26.1-.4-2.9-3.1-27.2-3.7-30.7-.6-3.4-2.3-22-4.3-29.8s-3.9-18-10-27.4-12.1-14.4-18.2-17.2-15.9-2.6-18.8-1z" fill="#543c32" stroke-width="none" opacity="1" stroke="none"></path><path id="SvgjsPath9371" d="m94.9 75.3-.3-2.2-.3-2.2c-.3-3-.5-5.9-.6-8.9-.1-3 .1-6 .3-8.9.2-3 .7-5.9 1.2-8.9-.9 2.8-1.5 5.8-1.9 8.8-.4 3-.6 6-.6 9 .1 3 .3 6 .8 9l.4 2.2.5 2.2c.4 1.4.8 2.9 1.3 4.3-.1-.7-.3-1.5-.4-2.2l-.4-2.2zm-7-13.1c-.1-2.3-.1-4.6.1-6.9l.1-1.7.2-1.7.2-1.7c.1-.6.2-1.2.3-1.7-.4 1.1-.7 2.2-1 3.4l-.3 1.7-.3 1.7c-.3 2.3-.4 4.7-.3 7 .1 2.3.4 4.7.9 7S89 73.8 90 76c-.6-2.3-1.1-4.5-1.4-6.8-.4-2.4-.7-4.7-.7-7zm-5.7.8c0 4.1.6 8.3 2 12.2-.6-4.1-1-8.1-1-12.2s.4-8.1 1.1-12.2c-1.4 3.9-2.1 8.1-2.1 12.2zm.5-12.5c-1.3 3.8-2 7.7-2.2 11.7-.2 4 0 8 .9 11.8-.1-4-.1-7.9.1-11.8.2-3.9.7-7.8 1.2-11.7zm-4.1 1.8c-.5 2.5-.8 5.1-1.1 7.7-.2 2.6-.2 5.2-.1 7.8.1 2.6.4 5.2.9 7.7-.1-2.6-.2-5.2-.2-7.7 0-2.6.1-5.1.3-7.7.2-2.6.5-5.1.8-7.7.2-1.3.4-2.5.6-3.8l.3-1.9c.1-.6.2-1.3.4-1.9-.4 1.2-.8 2.5-1.2 3.7-.2 1.2-.5 2.5-.7 3.8zm-3.9 4.3L75 55l.4-1.6.4-1.6c.2-.5.3-1.1.5-1.6-.5 1-1 2-1.4 3l-.6 1.6-.5 1.6c-.6 2.2-1 4.4-1.2 6.7-.2 2.2-.1 4.5.1 6.8.3 2.2.7 4.4 1.5 6.6-.3-2.2-.6-4.4-.7-6.6-.1-2.2-.1-4.4.1-6.6.3-2.3.6-4.5 1.1-6.7zm-3.6-1.8-.6 1.9c-.7 2.5-1.2 5.1-1.4 7.7-.3 2.6-.3 5.2-.2 7.9.2 2.6.5 5.2 1.1 7.8-.2-2.6-.4-5.2-.4-7.8 0-2.6.1-5.2.4-7.7.3-2.6.7-5.1 1.2-7.7l.4-1.9.5-1.9.5-1.9c.2-.6.4-1.2.6-1.9-.6 1.2-1.1 2.4-1.5 3.6l-.6 1.9zm-4.4 8.7.4-2.2.5-2.2.5-2.2c.2-.7.4-1.4.6-2.2-.3.7-.6 1.4-.8 2.1l-.8 2.2-.6 2.2-.5 2.1v.1c-2.3 9.1-3.3 18.6-3.1 28 .1 5.2.6 10.4 1.4 15.6.7 4.3 1.7 8.5 2.9 12.7-.6-1.1-1.2-2.1-1.8-3.2l-3.1-5.4 2.8 5.6c.9 1.9 1.9 3.7 2.8 5.6l1.3 2.5-.8-2.7c-1.4-5-2.5-10.1-3.3-15.2-.8-5.1-1.2-10.3-1.4-15.4-.1-6.9.3-13.7 1.2-20.5 0 .4-.1.8-.1 1.2-.1 3-.1 6 .3 9 .3 3 .9 5.9 1.8 8.8-.5-2.9-.9-5.9-1.1-8.9-.2-3-.2-5.9-.1-8.9.2-2.9.6-5.8 1-8.7zm35.5-26c.6 3.7 1 7.3 1.3 11 .3 3.7.4 7.4.3 11 0 3.7-.3 7.4-.6 11l-.3 2.8-.4 2.7-.4 2.7c-.2.9-.3 1.8-.5 2.7.5-1.8.9-3.6 1.4-5.4l.5-2.7.4-2.8c.5-3.7.8-7.4.9-11.1 0-3.7-.1-7.5-.6-11.1-.4-3.5-1-7.2-2-10.8zm5.6 6.7c.5 4 .9 8 1.2 12 .3 4 .3 8 .3 12.1.8-4 .9-8.1.7-12.2-.3-4-1-8.1-2.2-11.9zm8.4 9.1c-1-3.2-2.2-6.2-3.8-9.2 1.2 3.1 2.2 6.2 3 9.4.8 3.2 1.5 6.4 1.9 9.6.5 3.2.7 6.5.8 9.8v2.5l-.1 2.5-.1 2.5c-.1.8-.1 1.6-.2 2.5.2-.8.3-1.6.5-2.4l.3-2.4.2-2.5.1-2.5c.1-3.3-.1-6.6-.5-9.9-.4-3.5-1.1-6.7-2.1-9.9zm6.7 11.9c-.2-2.2-.6-4.5-1.1-6.7-.5-2.2-1.1-4.3-1.9-6.5-.8-2.1-1.7-4.2-2.8-6.1.7 2.1 1.4 4.2 2 6.4.6 2.1 1.2 4.3 1.7 6.4.5 2.2.9 4.3 1.3 6.5.2 1.1.3 2.2.5 3.3.2 1.1.3 2.2.4 3.3.1-1.1.1-2.2.1-3.4 0-1-.1-2.1-.2-3.2zm5.2 7.7.1 2.4v4.8c0 .8-.1 1.6-.1 2.4.1-.8.2-1.6.4-2.4l.2-2.4.1-2.5.1-2.5c0-3.3-.3-6.6-.8-9.8-.5-3.2-1.2-6.5-2.2-9.6-1-3.1-2.2-6.2-3.7-9.1 1.1 3.1 2.1 6.2 2.9 9.3.8 3.2 1.5 6.3 2 9.5.6 3.5.9 6.7 1 9.9zm.1-20.6c.1.6.2 1.2.3 1.9l.3 1.9c.2 1.2.4 2.5.5 3.7.2 2.5.4 5 .4 7.5s-.1 5-.3 7.5c-.2 2.5-.5 5-.9 7.4.8-2.4 1.3-4.9 1.7-7.4.4-2.5.5-5 .5-7.6 0-2.5-.2-5.1-.6-7.5-.2-1.2-.5-2.5-.8-3.7-.3-1.3-.7-2.5-1.1-3.7zm6 14.3c-.5-2.7-1.1-5.4-2-8.1-.8-2.6-1.8-5.2-2.9-7.7.8 2.6 1.5 5.3 2.2 7.9.6 2.7 1.2 5.3 1.7 8s.9 5.4 1.2 8.1c.2 1.4.3 2.7.4 4.1l.2 2.1c0 .7.1 1.4.1 2.1.1-1.4.1-2.8.2-4.1 0-1.4-.1-2.8-.1-4.1-.1-2.9-.5-5.6-1-8.3zm1 23.1c1-2.2 1.8-4.5 2.2-6.8 0 2.9 0 5.7-.1 8.6-.1 5.6-.5 11.1-1.1 16.7l-.5 4.2-.6 4.2-.6 4.1-.2 1.1-.9 3.3c.1-.2.3-.5.4-.8l-.1.5.1-.6c1-1.9 1.8-3.8 2.6-5.7.8-2.3 1.6-4.6 2.1-7-1.2 2.1-2.2 4.3-3 6.6-.2.6-.4 1.1-.6 1.7l.7-3.2.7-4.1.6-4.2c.8-5.6 1.2-11.2 1.4-16.8.1-4.6 0-9.2-.2-13.8.1-1.9.1-3.8-.2-5.7-.1.4-.1.8-.1 1.2-.4-5.1-1.1-10.1-2.1-15.1.7 5.5 1.2 11.1 1.5 16.7 0 .9.1 1.8.1 2.7-.1 1.2-.3 2.3-.5 3.4-.4 2.9-1 5.8-1.6 8.8zM78.7 33.8c-7.1 3.5-13 9-17.6 15.3-4.6 6.4-7.9 13.7-10 21.2-2.2 7.6-3.3 15.4-3.8 23.2-.5 7.8-.5 15.7-.2 23.5.3 7.8 1 15.6 2.3 23.3 1.3 7.7 3.1 15.4 5.8 22.7 2.7 7.4 6.1 14.4 10.3 21-4.1-6.6-7.4-13.8-9.8-21.2-2.5-7.4-4.3-15-5.5-22.7-2.3-15.4-2.7-31.1-1.9-46.6.5-7.8 1.5-15.5 3.7-23 2.1-7.5 5.3-14.6 9.8-21 4.5-6.3 10.3-11.8 17.2-15.3 6.8-3.6 14.8-5.4 22.6-4.5-7.9-1-15.9.6-22.9 4.1zM65.6 161.9l-2.9-7.4-2.5-7.6c-3-10.2-4.9-20.7-5.5-31.2-.7-10.6-.2-21.2 1.5-31.7C58 73.5 60.9 63.2 65 53.4l-3.1 7.4-2.6 7.6-2.1 7.6-1.6 7.8c-1.9 10.5-2.4 21.2-1.8 31.9.2 3.2.5 6.4 1 9.6l-.1 3.4v3.7l.1 3.7.2 3.7c.4 4.9 1.1 9.9 2.1 14.7 1.1 4.9 2.3 9.6 4 14.3 1.6 4.7 3.5 9.3 5.8 13.7-1.9-4.6-3.6-9.2-5.1-13.9-1.5-4.7-2.8-9.5-3.7-14.3-1-4.8-1.8-9.7-2.3-14.6l-.4-3.7-.3-3.7-.2-3.7-.1-3.2c1 7.3 2.6 14.6 4.8 21.6l2.6 7.6 3 7.4 3.5 7.2 4 6.9-3.8-7-3.3-7.2zm12 7.7-1.9-4.5-1.8-4.6c-2.3-6.1-4.4-12.4-6.1-18.7-1.8-6.3-3.2-12.8-4.3-19.2-1.1-6.5-1.9-13-2.5-19.6.1 6.6.7 13.2 1.7 19.7s2.4 13 4.1 19.4c1.8 6.4 3.9 12.6 6.4 18.7l1.9 4.6 2.1 4.5 2.2 4.4 2.4 4.3-2.1-4.5-2.1-4.5zM62.8 163c.8 3.6 1.8 7 2.9 10.4 1.2 3.4 2.4 6.8 3.9 10.1-.8-3.6-1.8-7-2.9-10.4-1.2-3.4-2.4-6.8-3.9-10.1zm-13.1 1.3c-.4-3.5-.8-7.1-1.2-10.6l-1-10.6v5.4c.1 1.8.2 3.6.2 5.4.2 3.6.5 7.1.9 10.7.4 3.6.9 7.1 1.5 10.6s1.3 7 2.2 10.5L51 174.9c-.5-3.5-.9-7-1.3-10.6zM149.6 90c-.3-3.7-.8-7.3-1.4-10.9-1.2-7.2-3.2-14.4-6.4-21S134 45.4 128.1 41c-5.8-4.4-13-7.2-20.4-7.2 7.3.1 14.4 3.1 20.1 7.6 2.9 2.2 5.5 4.8 7.7 7.7 2.2 2.9 4.1 6 5.6 9.3 3.1 6.6 5 13.7 6.2 20.9.6 3.6 1.1 7.2 1.4 10.8.4 3.6.6 7.3.7 10.9.6 14.6-.6 29.2-3.3 43.6-1.4 7.2-3.1 14.3-5.3 21.2-2.1 7-4.7 13.9-7.6 20.6 3.1-6.6 5.8-13.4 8.1-20.4 2.3-7 4.2-14.1 5.6-21.2 2.9-14.4 4.1-29.1 3.6-43.7-.3-3.8-.5-7.5-.9-11.1zm-.9 51.8-.2 3c-.1 2-.3 3.9-.5 5.9-.4 3.9-.8 7.9-1.3 11.8-.5 3.9-1.1 7.8-1.8 11.7-.7 3.9-1.5 7.8-2.3 11.6 1.2-3.8 2.2-7.6 3-11.5.9-3.9 1.5-7.8 2.1-11.7.5-3.9.9-7.9 1.1-11.9.1-2 .1-4 .2-5.9 0-2 0-4-.1-5.9-.1.9-.2 1.9-.2 2.9zm-9.4-12.4c1.2-9 2.1-18.1 2.5-27.2s.4-18.2 0-27.3c.1 9.1-.2 18.2-.7 27.3s-1.5 18.1-2.8 27.1c-1.2 9-2.9 17.9-4.8 26.8l-1.5 6.6-1.6 6.6-1.7 6.6-1.9 6.6 2.1-6.5 2-6.5 1.8-6.6 1.6-6.6c2.1-8.9 3.7-17.9 5-26.9zm-1.5 29.5c-1.1 4.1-2.4 8.2-3.8 12.2 1.8-3.9 3.3-7.9 4.5-12 1.3-4.1 2.2-8.3 3-12.5.7-4.2 1.2-8.5 1.4-12.8l.1-3.2v-3.2l-.1-3.2c-.1-1.1-.1-2.1-.2-3.2 0 1.1-.1 2.1-.1 3.2l-.1 3.2-.2 3.2-.2 3.2c-.4 4.2-.9 8.5-1.7 12.6-.5 4.2-1.5 8.4-2.6 12.5zm-7.4-2.5-.6 5.1c-.1 1.7-.3 3.4-.4 5.1l3.5-20.1 3.6-20c-1 3.3-1.8 6.6-2.5 9.9-.8 3.3-1.4 6.6-2 10-.6 3.3-1.2 6.6-1.6 10zm29.4-9.8c-.8-5.2-1.5-10.5-2.2-15.7-.7-5.2-1.4-10.5-2-15.8l-.9-8c-.4-4.8-.9-9.6-1.5-14.4-1-7.3-2.4-14.6-4.1-21.9-.9-3.6-1.9-7.2-3.1-10.7-1.2-3.5-2.7-7-4.5-10.2-1.8-3.3-3.9-6.4-6.4-9.1-2.5-2.8-5.4-5.2-8.5-7.2-3.2-2-6.7-3.4-10.3-4.2-3.6-.8-7.4-.9-11-.1 3.7-.6 7.4-.5 11 .4 3.6.9 7 2.4 10.1 4.4 3.1 2 5.9 4.4 8.3 7.2 2.4 2.8 4.5 5.8 6.2 9.1 3.4 6.5 5.7 13.6 7.4 20.8 1.6 7.2 3.1 14.4 4 21.8 1 7.3 1.7 14.7 2.1 22.1.4 7.4.5 14.8.5 22.2 0 7.4-.3 14.8-.7 22.2-.4 7.4-.9 14.8-1.5 22.1.8-7.4 1.5-14.7 2-22.1.5-7.4.8-14.8 1-22.2.1-5.1.1-10.2-.1-15.3.3 3.1.7 6.1 1.1 9.2.7 5.2 1.5 10.5 2.4 15.7.5 2.6.9 5.2 1.5 7.8.5 2.6 1.1 5.2 1.7 7.8l-2.5-15.9z" fill="#452c22" stroke-width="none" opacity="1" stroke="none"></path></g><g id="svga-group-glasses-single-move" transform="matrix(1,0,0,1,0,0)"><g id="svga-group-glasses-single"></g></g></g></g></g><rect id="svga-credit-rect" width="200" height="15" x="0" y="185" fill="#ecf0f1" opacity="0.5" style="display: none;"></rect><text id="svga-credit-text" font-family="Avenir Next, Roboto, Helvetica, Arial, sans-serif" font-size="10px" text-anchor="start" font-weight="400" size="10px" anchor="start" weight="400" fill="#333333" x="33.40447998046875" y="182.60824704170227" style="display: none;"><tspan id="SvgjsTspan8622" dy="13" x="33.40447998046875">Created on AvatarMaker.com</tspan></text></g><defs id="SvgjsDefs8574"><linearGradient id="SvgjsLinearGradient9010" x1="99.7789" y1="100.5259" x2="99.7789" y2="111.7225" gradientUnits="userSpaceOnUse" class="svga-on-canvas-nose-gradient-single-0-null"><stop id="SvgjsStop9011" stop-opacity="0" stop-color="#f3d4cf" offset="0" ></stop><stop id="SvgjsStop9012" stop-opacity="1" stop-color="#ebc3bd" offset="1" ></stop></linearGradient></defs></svg>